<svg width="270" height="44" viewBox="0 0 270 44" fill="none" xmlns="http://www.w3.org/2000/svg">
<path d="M54.8899 30.8812H54.3753C54.2825 30.5184 54.08 30.1303 53.7679 29.717C53.4642 29.3036 53.1689 29.0758 52.8906 29.0337C52.7471 29.0168 52.5784 28.9999 52.3844 28.9915C52.1904 28.983 51.971 28.9746 51.718 28.9746H50.0729V32.9058H51.2034C51.5408 32.9058 51.8107 32.8721 51.9963 32.7961C52.1819 32.7286 52.3422 32.619 52.4772 32.4671C52.57 32.3659 52.6543 32.2056 52.7303 31.9947C52.8062 31.7838 52.8568 31.556 52.8821 31.3114H53.3967V35.1582H52.8821C52.8652 34.9557 52.8231 34.728 52.7387 34.4665C52.6543 34.2134 52.57 34.0194 52.4772 33.9097C52.3422 33.741 52.1651 33.6229 51.9542 33.5638C51.7433 33.5048 51.4902 33.471 51.1949 33.471H50.0729V36.837C50.0729 36.9888 50.1067 37.1238 50.1657 37.2419C50.2248 37.36 50.3344 37.4613 50.4863 37.5287C50.5538 37.5625 50.7056 37.5962 50.9334 37.6468C51.1612 37.689 51.3383 37.7143 51.4564 37.7228V38.2121H47.2131V37.7228C47.3481 37.7143 47.5337 37.6975 47.7615 37.6806C47.9892 37.6637 48.1411 37.63 48.2086 37.6047C48.3435 37.5456 48.4448 37.4528 48.5123 37.3432C48.5713 37.225 48.6051 37.0816 48.6051 36.9213V29.852C48.6051 29.7001 48.5797 29.5651 48.5291 29.447C48.4785 29.3289 48.3688 29.2361 48.2086 29.1602C48.082 29.1012 47.9133 29.0505 47.7108 28.9999C47.4999 28.9493 47.3312 28.924 47.2131 28.9156V28.4263H54.8899V30.8812Z" fill="#BCB2B3"/>
<path d="M65.6964 38.1032L63.4777 38.2551L63.3765 38.1623V37.3018H63.3343C63.2247 37.4199 63.0981 37.538 62.9632 37.673C62.8282 37.808 62.6679 37.9261 62.4907 38.0273C62.2798 38.1538 62.0858 38.2466 61.8918 38.3141C61.6977 38.3816 61.4278 38.4069 61.0735 38.4069C60.4745 38.4069 60.0105 38.2129 59.6984 37.8164C59.3863 37.4199 59.226 36.8547 59.226 36.1039V32.8476C59.226 32.6789 59.1923 32.5439 59.1332 32.4342C59.0741 32.3245 58.9813 32.2233 58.8632 32.139C58.7789 32.0799 58.6777 32.0462 58.5511 32.0209C58.4246 31.9956 58.2896 31.9787 58.1546 31.9702V31.5147L60.4239 31.346L60.5251 31.4388V36.1629C60.5251 36.6522 60.6348 37.0234 60.8541 37.2765C61.0735 37.5211 61.3434 37.6477 61.6471 37.6477C61.9002 37.6477 62.128 37.6055 62.322 37.5296C62.516 37.4537 62.6848 37.3609 62.8197 37.2512C62.9463 37.1584 63.0559 37.0487 63.1487 36.9475C63.2415 36.8378 63.3175 36.7366 63.3681 36.6522V32.797C63.3681 32.6451 63.3343 32.5101 63.2753 32.392C63.2078 32.2739 63.1234 32.1727 63.0053 32.0883C62.921 32.0293 62.8029 32.004 62.6341 31.9871C62.4739 31.9787 62.2883 31.9618 62.0858 31.9534V31.4978L64.566 31.3291L64.6672 31.4219V36.8209C64.6672 36.9812 64.701 37.1078 64.76 37.2174C64.8191 37.3271 64.9119 37.4199 65.03 37.5043C65.1143 37.5549 65.2071 37.5886 65.3252 37.6055C65.4433 37.6224 65.5699 37.6308 65.7049 37.6392V38.1032H65.6964Z" fill="#BCB2B3"/>
<path d="M73.5587 37.9249C73.2635 38.0515 72.9767 38.1527 72.7067 38.2371C72.4368 38.3214 72.1162 38.3636 71.7281 38.3636C71.1545 38.3636 70.758 38.2202 70.5218 37.9334C70.294 37.6465 70.1759 37.2416 70.1759 36.7186V32.1125H68.9442V31.446H70.2012V29.3286H71.4582V31.446H73.4153V32.1125H71.4751V35.9171C71.4751 36.204 71.4835 36.4402 71.5088 36.6342C71.5257 36.8282 71.5763 36.9885 71.6522 37.1319C71.7281 37.2669 71.8378 37.3681 71.9812 37.4356C72.1246 37.5031 72.3271 37.5369 72.5717 37.5369C72.6898 37.5369 72.8586 37.5284 73.0779 37.5031C73.2972 37.4862 73.4575 37.4525 73.5503 37.4272V37.9249H73.5587Z" fill="#BCB2B3"/>
<path d="M84.3569 38.1032L82.1382 38.2551L82.037 38.1623V37.3018H81.9948C81.8851 37.4199 81.7586 37.538 81.6236 37.673C81.4886 37.808 81.3284 37.9261 81.1512 38.0273C80.9403 38.1538 80.7463 38.2466 80.5522 38.3141C80.3582 38.3816 80.0883 38.4069 79.7339 38.4069C79.135 38.4069 78.671 38.2129 78.3589 37.8164C78.0467 37.4199 77.8865 36.8547 77.8865 36.1039V32.8476C77.8865 32.6789 77.8527 32.5439 77.7937 32.4342C77.7346 32.3245 77.6418 32.2233 77.5237 32.139C77.4393 32.0799 77.3381 32.0462 77.2116 32.0209C77.085 31.9956 76.9501 31.9787 76.8151 31.9702V31.5147L79.0844 31.346L79.1856 31.4388V36.1629C79.1856 36.6522 79.2953 37.0234 79.5146 37.2765C79.7339 37.5211 80.0039 37.6477 80.3076 37.6477C80.5607 37.6477 80.7884 37.6055 80.9825 37.5296C81.1765 37.4537 81.3452 37.3609 81.4802 37.2512C81.6067 37.1584 81.7164 37.0487 81.8092 36.9475C81.902 36.8378 81.9779 36.7366 82.0285 36.6522V32.797C82.0285 32.6451 81.9948 32.5101 81.9357 32.392C81.8683 32.2739 81.7839 32.1727 81.6658 32.0883C81.5814 32.0293 81.4633 32.004 81.2946 31.9871C81.1343 31.9787 80.9487 31.9618 80.7463 31.9534V31.4978L83.2265 31.3291L83.3277 31.4219V36.8209C83.3277 36.9812 83.3614 37.1078 83.4205 37.2174C83.4795 37.3271 83.5723 37.4199 83.6904 37.5043C83.7748 37.5549 83.8676 37.5886 83.9857 37.6055C84.1038 37.6224 84.2303 37.6308 84.3653 37.6392V38.1032H84.3569Z" fill="#BCB2B3"/>
<path d="M93.2232 32.2985C93.2232 32.5347 93.1641 32.7372 93.0544 32.9228C92.9363 33.1084 92.7592 33.1927 92.523 33.1927C92.2699 33.1927 92.0674 33.1252 91.9325 32.9903C91.7975 32.8553 91.73 32.7119 91.73 32.5516C91.73 32.4504 91.7384 32.3576 91.7553 32.2732C91.7722 32.1888 91.789 32.1045 91.7975 32.0286C91.5781 32.0286 91.3251 32.1129 91.0382 32.2901C90.7514 32.4672 90.4983 32.7119 90.2959 33.0324V36.9889C90.2959 37.1492 90.3296 37.2842 90.3887 37.3854C90.4477 37.4867 90.5489 37.5626 90.6839 37.6132C90.802 37.6638 90.9454 37.6976 91.131 37.7144C91.3082 37.7397 91.4685 37.7566 91.6035 37.7651V38.2206H88.0181V37.7651C88.1194 37.7566 88.229 37.7482 88.3471 37.7397C88.4653 37.7313 88.558 37.7144 88.6424 37.6807C88.7689 37.6385 88.8702 37.571 88.9292 37.4614C88.9883 37.3601 89.022 37.2251 89.022 37.0564V32.8637C89.022 32.7203 88.9883 32.5769 88.9208 32.4419C88.8533 32.3069 88.7605 32.1973 88.6424 32.1129C88.558 32.0539 88.4484 32.0201 88.3303 31.9948C88.2122 31.9695 88.0856 31.9526 87.9422 31.9442V31.4886L90.2031 31.3368L90.2959 31.4296V32.3913H90.3296C90.6164 32.0201 90.9286 31.7333 91.2829 31.5393C91.6288 31.3452 91.9493 31.2524 92.2446 31.2524C92.5314 31.2524 92.7676 31.3452 92.9532 31.5393C93.1388 31.7249 93.2232 31.9779 93.2232 32.2985Z" fill="#BCB2B3"/>
<path d="M102.68 36.626C102.393 37.1659 102.014 37.6046 101.533 37.9251C101.052 38.2457 100.503 38.406 99.8792 38.406C99.3309 38.406 98.85 38.3132 98.4451 38.1191C98.0402 37.9251 97.6943 37.6636 97.4243 37.3346C97.1544 37.0056 96.9604 36.6175 96.8254 36.1789C96.6988 35.7402 96.6314 35.2678 96.6314 34.7785C96.6314 34.3398 96.6988 33.9011 96.8423 33.4793C96.9857 33.0575 97.1881 32.6695 97.4581 32.332C97.7196 32.003 98.0486 31.7415 98.4367 31.539C98.8247 31.3366 99.2634 31.2354 99.7442 31.2354C100.242 31.2354 100.664 31.3113 101.018 31.4716C101.372 31.6318 101.659 31.8428 101.879 32.1127C102.089 32.3742 102.25 32.6695 102.351 33.0238C102.452 33.3697 102.503 33.7493 102.503 34.1627V34.6182H97.998C97.998 35.0653 98.0402 35.4702 98.1245 35.833C98.2089 36.1957 98.3439 36.5163 98.5295 36.7947C98.7066 37.0646 98.9428 37.2755 99.2296 37.4274C99.5165 37.5792 99.8624 37.6552 100.267 37.6552C100.672 37.6552 101.027 37.5624 101.322 37.3683C101.617 37.1743 101.904 36.8284 102.182 36.3307L102.68 36.626ZM101.153 34.0277C101.153 33.7746 101.128 33.4962 101.086 33.2009C101.043 32.9057 100.967 32.661 100.875 32.467C100.765 32.2561 100.622 32.0874 100.436 31.9524C100.25 31.8174 100.014 31.7499 99.7274 31.7499C99.2465 31.7499 98.8416 31.9524 98.521 32.3489C98.2005 32.7538 98.0317 33.3106 97.998 34.0277H101.153Z" fill="#BCB2B3"/>
<path d="M119.164 34.7534C119.164 35.2343 119.088 35.6983 118.936 36.1623C118.784 36.6262 118.565 37.0143 118.287 37.3349C117.966 37.7061 117.603 37.976 117.182 38.1532C116.76 38.3303 116.296 38.4231 115.773 38.4231C115.342 38.4231 114.929 38.3388 114.533 38.1785C114.145 38.0182 113.79 37.7735 113.487 37.4614C113.183 37.1493 112.947 36.7781 112.769 36.331C112.592 35.8839 112.508 35.3862 112.508 34.8378C112.508 33.7749 112.82 32.906 113.436 32.2311C114.052 31.5562 114.87 31.2188 115.874 31.2188C116.827 31.2188 117.612 31.5393 118.236 32.1805C118.852 32.83 119.164 33.6821 119.164 34.7534ZM117.73 34.7703C117.73 34.4244 117.696 34.0617 117.629 33.6736C117.561 33.294 117.46 32.965 117.317 32.6951C117.173 32.4082 116.971 32.1805 116.734 32.0117C116.498 31.843 116.203 31.7502 115.857 31.7502C115.503 31.7502 115.199 31.8346 114.946 32.0117C114.693 32.1889 114.49 32.4251 114.33 32.7288C114.187 33.0072 114.077 33.3278 114.018 33.6905C113.959 34.0533 113.925 34.3991 113.925 34.7366C113.925 35.1752 113.959 35.5886 114.035 35.9598C114.111 36.331 114.22 36.6684 114.381 36.9637C114.541 37.259 114.735 37.4867 114.971 37.6554C115.208 37.8242 115.503 37.9085 115.849 37.9085C116.422 37.9085 116.878 37.6301 117.215 37.0734C117.561 36.5166 117.73 35.7489 117.73 34.7703Z" fill="#BCB2B3"/>
<path d="M128.03 28.3672C128.03 28.5781 127.98 28.7468 127.861 28.8902C127.752 29.0336 127.583 29.1011 127.355 29.1011C127.212 29.1011 127.085 29.0674 126.976 29.0083C126.866 28.9493 126.765 28.8649 126.672 28.7637C126.579 28.6624 126.495 28.5443 126.419 28.4178C126.343 28.2913 126.276 28.1816 126.216 28.1057C125.913 28.1225 125.668 28.3334 125.499 28.7468C125.331 29.1602 125.246 29.8266 125.246 30.7293V31.421H127.001V32.0875H125.246V36.9719C125.246 37.1322 125.28 37.2672 125.339 37.3684C125.398 37.4696 125.499 37.5456 125.634 37.5962C125.744 37.6384 125.896 37.6721 126.073 37.6974C126.259 37.7227 126.419 37.7396 126.545 37.748V38.2036H122.96V37.748C123.061 37.7396 123.171 37.7312 123.289 37.7227C123.407 37.7143 123.5 37.6974 123.584 37.6637C123.711 37.6215 123.812 37.5456 123.871 37.4443C123.93 37.3431 123.964 37.2081 123.964 37.0394V32.0875H122.623V31.421H123.964V30.9908C123.964 29.9616 124.234 29.118 124.765 28.4768C125.305 27.8357 125.972 27.5151 126.773 27.5151C127.178 27.5151 127.49 27.5911 127.701 27.7598C127.929 27.9454 128.03 28.1394 128.03 28.3672Z" fill="#BCB2B3"/>
<path d="M141.081 38.2208H136.669V37.7315C136.795 37.7231 136.972 37.7062 137.209 37.6894C137.445 37.6725 137.605 37.6472 137.706 37.605C137.858 37.546 137.968 37.4616 138.035 37.3604C138.103 37.2591 138.137 37.1157 138.137 36.9301V29.8354C138.137 29.6751 138.111 29.5402 138.061 29.4305C138.01 29.3208 137.892 29.228 137.706 29.1606C137.571 29.1015 137.394 29.0509 137.183 29.0087C136.972 28.9665 136.804 28.9328 136.669 28.9243V28.4351H141.081V28.9243C140.937 28.9328 140.769 28.9497 140.575 28.975C140.372 29.0087 140.203 29.0425 140.06 29.0931C139.883 29.1521 139.765 29.2365 139.706 29.363C139.647 29.4896 139.613 29.6245 139.613 29.7764V36.8626C139.613 37.0145 139.647 37.1495 139.714 37.2676C139.782 37.3857 139.891 37.4785 140.051 37.546C140.144 37.5797 140.305 37.6219 140.524 37.6641C140.743 37.7062 140.929 37.7316 141.081 37.74V38.2208Z" fill="#BCB2B3"/>
<path d="M152.469 38.2207H149.146V37.7651C149.255 37.7567 149.365 37.7482 149.491 37.7398C149.618 37.7314 149.719 37.7145 149.804 37.6807C149.93 37.6386 150.031 37.5626 150.09 37.4614C150.149 37.3602 150.183 37.2252 150.183 37.0565V33.5555C150.183 33.0747 150.065 32.7035 149.837 32.4335C149.61 32.172 149.331 32.037 149.002 32.037C148.758 32.037 148.538 32.0708 148.336 32.1551C148.133 32.2311 147.956 32.3239 147.796 32.4335C147.644 32.5432 147.526 32.6529 147.433 32.771C147.34 32.8891 147.281 32.9903 147.239 33.0662V36.9806C147.239 37.1408 147.273 37.2674 147.332 37.3686C147.399 37.4698 147.492 37.5458 147.619 37.6048C147.711 37.6554 147.821 37.6892 147.931 37.7061C148.04 37.7314 148.159 37.7482 148.277 37.7567V38.2122H144.944V37.7567C145.046 37.7482 145.155 37.7398 145.273 37.7314C145.383 37.7229 145.484 37.7061 145.569 37.6723C145.695 37.6301 145.796 37.5626 145.856 37.453C145.915 37.3517 145.948 37.2168 145.948 37.048V32.8553C145.948 32.6951 145.915 32.5516 145.847 32.4251C145.78 32.2901 145.687 32.1889 145.569 32.1045C145.484 32.0455 145.375 32.0117 145.257 31.9864C145.138 31.9611 145.012 31.9443 144.869 31.9358V31.4803L147.129 31.3284L147.222 31.4212V32.3829H147.256C147.366 32.2733 147.501 32.1383 147.669 31.9864C147.838 31.8346 147.99 31.708 148.142 31.6068C148.31 31.4971 148.513 31.4043 148.749 31.3284C148.985 31.2525 149.247 31.2188 149.542 31.2188C150.192 31.2188 150.681 31.4212 150.993 31.8261C151.305 32.2311 151.465 32.771 151.465 33.4543V36.9974C151.465 37.1577 151.491 37.2843 151.55 37.3855C151.609 37.4867 151.702 37.5626 151.837 37.6133C151.946 37.6554 152.039 37.6892 152.123 37.7061C152.208 37.7229 152.318 37.7398 152.461 37.7482V38.2207H152.469Z" fill="#BCB2B3"/>
<path d="M163.647 38.2207H160.323V37.7651C160.433 37.7567 160.543 37.7482 160.669 37.7398C160.796 37.7314 160.897 37.7145 160.981 37.6807C161.108 37.6386 161.209 37.5626 161.268 37.4614C161.327 37.3602 161.361 37.2252 161.361 37.0565V33.5555C161.361 33.0747 161.243 32.7035 161.015 32.4335C160.787 32.172 160.509 32.037 160.18 32.037C159.935 32.037 159.716 32.0708 159.513 32.1551C159.311 32.2311 159.134 32.3239 158.973 32.4335C158.822 32.5432 158.704 32.6529 158.611 32.771C158.518 32.8891 158.459 32.9903 158.417 33.0662V36.9806C158.417 37.1408 158.45 37.2674 158.51 37.3686C158.577 37.4698 158.67 37.5458 158.796 37.6048C158.889 37.6554 158.999 37.6892 159.108 37.7061C159.218 37.7314 159.336 37.7482 159.454 37.7567V38.2122H156.122V37.7567C156.223 37.7482 156.333 37.7398 156.451 37.7314C156.561 37.7229 156.662 37.7061 156.746 37.6723C156.873 37.6301 156.974 37.5626 157.033 37.453C157.092 37.3517 157.126 37.2168 157.126 37.048V32.8553C157.126 32.6951 157.092 32.5516 157.025 32.4251C156.957 32.2901 156.864 32.1889 156.746 32.1045C156.662 32.0455 156.552 32.0117 156.434 31.9864C156.316 31.9611 156.19 31.9443 156.046 31.9358V31.4803L158.307 31.3284L158.4 31.4212V32.3829H158.434C158.543 32.2733 158.678 32.1383 158.847 31.9864C159.016 31.8346 159.168 31.708 159.319 31.6068C159.488 31.4971 159.691 31.4043 159.927 31.3284C160.163 31.2525 160.424 31.2188 160.72 31.2188C161.369 31.2188 161.859 31.4212 162.171 31.8261C162.483 32.2311 162.643 32.771 162.643 33.4543V36.9974C162.643 37.1577 162.668 37.2843 162.728 37.3855C162.787 37.4867 162.879 37.5626 163.014 37.6133C163.124 37.6554 163.217 37.6892 163.301 37.7061C163.386 37.7229 163.495 37.7398 163.639 37.7482V38.2207H163.647Z" fill="#BCB2B3"/>
<path d="M173.947 34.7534C173.947 35.2343 173.872 35.6983 173.72 36.1623C173.568 36.6262 173.349 37.0143 173.07 37.3349C172.75 37.7061 172.387 37.976 171.965 38.1532C171.543 38.3303 171.079 38.4231 170.556 38.4231C170.126 38.4231 169.713 38.3388 169.316 38.1785C168.928 38.0182 168.574 37.7735 168.27 37.4614C167.966 37.1493 167.73 36.7781 167.553 36.331C167.376 35.8839 167.291 35.3862 167.291 34.8378C167.291 33.7749 167.604 32.906 168.219 32.2311C168.835 31.5562 169.654 31.2188 170.657 31.2188C171.611 31.2188 172.395 31.5393 173.02 32.1805C173.635 32.83 173.947 33.6821 173.947 34.7534ZM172.513 34.7703C172.513 34.4244 172.48 34.0617 172.412 33.6736C172.345 33.294 172.243 32.965 172.1 32.6951C171.957 32.4082 171.754 32.1805 171.518 32.0117C171.282 31.843 170.986 31.7502 170.641 31.7502C170.286 31.7502 169.983 31.8346 169.729 32.0117C169.476 32.1889 169.274 32.4251 169.114 32.7288C168.97 33.0072 168.861 33.3278 168.802 33.6905C168.742 34.0533 168.709 34.3991 168.709 34.7366C168.709 35.1752 168.742 35.5886 168.818 35.9598C168.894 36.331 169.004 36.6684 169.164 36.9637C169.325 37.259 169.519 37.4867 169.755 37.6554C169.991 37.8242 170.286 37.9085 170.632 37.9085C171.206 37.9085 171.661 37.6301 171.999 37.0734C172.345 36.5166 172.513 35.7489 172.513 34.7703Z" fill="#BCB2B3"/>
<path d="M184.467 31.8429C184.256 31.8767 184.062 31.9526 183.877 32.0707C183.691 32.1804 183.531 32.3828 183.396 32.6696C183.126 33.2855 182.848 33.9266 182.552 34.6015C182.265 35.2679 181.962 35.9766 181.65 36.7105C181.557 36.9214 181.464 37.1745 181.354 37.4613C181.253 37.7481 181.152 38.0265 181.068 38.2965H180.528C180.089 37.2167 179.692 36.2296 179.321 35.3439C178.95 34.4581 178.57 33.5386 178.174 32.6106C178.081 32.3997 177.929 32.231 177.727 32.1213C177.524 32.0032 177.313 31.9273 177.111 31.8935V31.438H180.258V31.9188C180.123 31.9273 179.946 31.9526 179.743 32.0032C179.532 32.0538 179.431 32.1297 179.431 32.2225C179.431 32.2394 179.439 32.2732 179.465 32.3322C179.49 32.3913 179.507 32.4587 179.532 32.5262C179.718 32.9986 179.988 33.6482 180.334 34.4918C180.679 35.3354 180.958 36.0103 181.169 36.5249C181.337 36.1284 181.54 35.6391 181.793 35.0486C182.046 34.4581 182.316 33.8001 182.603 33.0746C182.645 32.948 182.696 32.8384 182.729 32.7287C182.772 32.619 182.788 32.5094 182.788 32.3997C182.788 32.3238 182.755 32.2478 182.679 32.1888C182.603 32.1297 182.51 32.0707 182.409 32.0285C182.299 31.9863 182.198 31.9442 182.097 31.9273C181.995 31.902 181.911 31.8851 181.852 31.8767V31.438H184.459V31.8429H184.467Z" fill="#BCB2B3"/>
<path d="M194.034 38.1029C193.814 38.1788 193.629 38.2463 193.468 38.2885C193.308 38.3391 193.123 38.3644 192.912 38.3644C192.557 38.3644 192.27 38.28 192.051 38.1113C191.84 37.9426 191.697 37.698 191.638 37.3774H191.596C191.292 37.7064 190.98 37.9595 190.634 38.1366C190.288 38.3138 189.883 38.3982 189.394 38.3982C188.879 38.3982 188.466 38.2379 188.137 37.9257C187.808 37.6136 187.648 37.2002 187.648 36.6941C187.648 36.4326 187.681 36.1964 187.757 35.9939C187.833 35.783 187.943 35.5974 188.086 35.4371C188.204 35.3021 188.356 35.1756 188.542 35.0659C188.727 34.9563 188.905 34.8719 189.073 34.8044C189.284 34.7285 189.697 34.5851 190.33 34.3657C190.963 34.1548 191.393 33.9861 191.612 33.868V33.1847C191.612 33.1256 191.596 33.0075 191.57 32.8388C191.545 32.6701 191.494 32.5098 191.41 32.358C191.317 32.1892 191.191 32.0374 191.022 31.9109C190.853 31.7843 190.617 31.7253 190.305 31.7253C190.094 31.7253 189.9 31.759 189.714 31.8349C189.529 31.9024 189.402 31.9783 189.335 32.0627C189.335 32.1555 189.36 32.2905 189.402 32.4676C189.444 32.6448 189.47 32.8135 189.47 32.9654C189.47 33.1256 189.394 33.2775 189.25 33.404C189.107 33.539 188.905 33.6065 188.643 33.6065C188.415 33.6065 188.247 33.5221 188.137 33.3619C188.027 33.2016 187.977 33.016 187.977 32.8135C187.977 32.6026 188.052 32.4001 188.204 32.2061C188.356 32.0121 188.55 31.8434 188.786 31.6915C188.997 31.565 189.242 31.4553 189.537 31.3625C189.832 31.2697 190.119 31.2275 190.398 31.2275C190.786 31.2275 191.123 31.2528 191.41 31.3035C191.697 31.3541 191.958 31.4722 192.195 31.6409C192.431 31.8096 192.608 32.0458 192.726 32.3327C192.844 32.6279 192.912 32.9991 192.912 33.4631C192.912 34.1211 192.903 34.7032 192.895 35.2093C192.878 35.7155 192.878 36.2723 192.878 36.8712C192.878 37.0484 192.912 37.1918 192.971 37.3015C193.03 37.4027 193.131 37.4955 193.258 37.5714C193.325 37.6136 193.435 37.6389 193.587 37.6389C193.738 37.6473 193.89 37.6474 194.042 37.6474V38.1029H194.034ZM191.629 34.4585C191.241 34.5766 190.895 34.6863 190.6 34.796C190.305 34.9056 190.035 35.0406 189.782 35.2093C189.554 35.3696 189.369 35.5552 189.234 35.7661C189.099 35.977 189.031 36.2385 189.031 36.5338C189.031 36.9134 189.132 37.2002 189.335 37.3774C189.537 37.5545 189.79 37.6474 190.094 37.6474C190.423 37.6474 190.71 37.5714 190.954 37.4111C191.199 37.2509 191.41 37.0653 191.579 36.8459L191.629 34.4585Z" fill="#BCB2B3"/>
<path d="M201.744 37.9249C201.449 38.0515 201.162 38.1527 200.892 38.2371C200.622 38.3214 200.302 38.3636 199.914 38.3636C199.34 38.3636 198.943 38.2202 198.707 37.9334C198.48 37.6465 198.361 37.2416 198.361 36.7186V32.1125H197.13V31.446H198.387V29.3286H199.644V31.446H201.601V32.1125H199.661V35.9171C199.661 36.204 199.669 36.4402 199.694 36.6342C199.711 36.8282 199.762 36.9885 199.838 37.1319C199.914 37.2669 200.023 37.3681 200.167 37.4356C200.31 37.5031 200.513 37.5369 200.757 37.5369C200.875 37.5369 201.044 37.5284 201.263 37.5031C201.483 37.4862 201.643 37.4525 201.736 37.4272V37.9249H201.744Z" fill="#BCB2B3"/>
<path d="M208.544 38.2199H205.262V37.7644C205.363 37.756 205.473 37.7475 205.591 37.7391C205.701 37.7307 205.802 37.7138 205.886 37.68C206.013 37.6379 206.114 37.5704 206.173 37.4607C206.232 37.3595 206.266 37.2245 206.266 37.0558V32.8631C206.266 32.7197 206.232 32.5847 206.165 32.4581C206.097 32.34 206.004 32.2304 205.886 32.1544C205.802 32.0954 205.675 32.0532 205.507 32.011C205.338 31.9688 205.186 31.952 205.051 31.9351V31.4796L207.455 31.3277L207.548 31.4205V36.9714C207.548 37.1317 207.582 37.2667 207.641 37.3679C207.7 37.4776 207.801 37.5535 207.936 37.6041C208.037 37.6463 208.139 37.68 208.231 37.7053C208.324 37.7306 208.434 37.7475 208.552 37.756V38.2199H208.544ZM207.683 28.6535C207.683 28.915 207.599 29.1428 207.422 29.3368C207.253 29.5308 207.034 29.6321 206.78 29.6321C206.544 29.6321 206.342 29.5393 206.173 29.3537C206.004 29.1681 205.912 28.9572 205.912 28.7125C205.912 28.4595 205.996 28.2401 206.173 28.0461C206.35 27.8605 206.553 27.7593 206.78 27.7593C207.042 27.7593 207.261 27.8521 207.422 28.0208C207.599 28.2148 207.683 28.4173 207.683 28.6535Z" fill="#BCB2B3"/>
<path d="M218.852 34.7534C218.852 35.2343 218.776 35.6983 218.625 36.1623C218.473 36.6262 218.253 37.0143 217.975 37.3349C217.654 37.7061 217.292 37.976 216.87 38.1532C216.448 38.3303 215.984 38.4231 215.461 38.4231C215.031 38.4231 214.618 38.3388 214.221 38.1785C213.833 38.0182 213.479 37.7735 213.175 37.4614C212.871 37.1493 212.635 36.7781 212.458 36.331C212.281 35.8839 212.196 35.3862 212.196 34.8378C212.196 33.7749 212.509 32.906 213.124 32.2311C213.74 31.5562 214.558 31.2188 215.562 31.2188C216.516 31.2188 217.3 31.5393 217.924 32.1805C218.54 32.83 218.852 33.6821 218.852 34.7534ZM217.418 34.7703C217.418 34.4244 217.385 34.0617 217.317 33.6736C217.25 33.294 217.148 32.965 217.005 32.6951C216.862 32.4082 216.659 32.1805 216.423 32.0117C216.187 31.843 215.891 31.7502 215.545 31.7502C215.191 31.7502 214.887 31.8346 214.634 32.0117C214.381 32.1889 214.179 32.4251 214.019 32.7288C213.875 33.0072 213.765 33.3278 213.706 33.6905C213.647 34.0533 213.614 34.3991 213.614 34.7366C213.614 35.1752 213.647 35.5886 213.723 35.9598C213.799 36.331 213.909 36.6684 214.069 36.9637C214.229 37.259 214.424 37.4867 214.66 37.6554C214.896 37.8242 215.191 37.9085 215.537 37.9085C216.111 37.9085 216.566 37.6301 216.904 37.0734C217.25 36.5166 217.418 35.7489 217.418 34.7703Z" fill="#BCB2B3"/>
<path d="M230.165 38.2207H226.841V37.7651C226.951 37.7567 227.061 37.7482 227.187 37.7398C227.314 37.7314 227.415 37.7145 227.499 37.6807C227.626 37.6386 227.727 37.5626 227.786 37.4614C227.845 37.3602 227.879 37.2252 227.879 37.0565V33.5555C227.879 33.0747 227.761 32.7035 227.533 32.4335C227.305 32.172 227.027 32.037 226.698 32.037C226.453 32.037 226.234 32.0708 226.031 32.1551C225.829 32.2311 225.652 32.3239 225.492 32.4335C225.34 32.5432 225.222 32.6529 225.129 32.771C225.036 32.8891 224.977 32.9903 224.935 33.0662V36.9806C224.935 37.1408 224.968 37.2674 225.028 37.3686C225.095 37.4698 225.188 37.5458 225.314 37.6048C225.407 37.6554 225.517 37.6892 225.627 37.7061C225.736 37.7314 225.854 37.7482 225.972 37.7567V38.2122H222.64V37.7567C222.741 37.7482 222.851 37.7398 222.969 37.7314C223.087 37.7229 223.18 37.7061 223.264 37.6723C223.391 37.6301 223.492 37.5626 223.551 37.453C223.61 37.3517 223.644 37.2168 223.644 37.048V32.8553C223.644 32.6951 223.61 32.5516 223.543 32.4251C223.475 32.2901 223.383 32.1889 223.264 32.1045C223.18 32.0455 223.07 32.0117 222.952 31.9864C222.834 31.9611 222.708 31.9443 222.564 31.9358V31.4803L224.825 31.3284L224.918 31.4212V32.3829H224.952C225.061 32.2733 225.196 32.1383 225.365 31.9864C225.534 31.8346 225.686 31.708 225.837 31.6068C226.006 31.4971 226.209 31.4043 226.445 31.3284C226.681 31.2525 226.943 31.2188 227.238 31.2188C227.887 31.2188 228.377 31.4212 228.689 31.8261C229.001 32.2311 229.161 32.771 229.161 33.4543V36.9974C229.161 37.1577 229.186 37.2843 229.246 37.3855C229.305 37.4867 229.397 37.5626 229.532 37.6133C229.642 37.6554 229.735 37.6892 229.819 37.7061C229.904 37.7229 230.013 37.7398 230.157 37.7482V38.2207H230.165Z" fill="#BCB2B3"/>
<path d="M56.7205 15.527C57.0411 15.8813 57.2773 16.2778 57.4291 16.6996C57.581 17.1214 57.6569 17.6191 57.6569 18.1843C57.6569 19.5256 57.1592 20.6308 56.1637 21.5081C55.1683 22.377 53.9366 22.8157 52.4688 22.8157C51.7939 22.8157 51.1106 22.706 50.4357 22.4951C49.7608 22.2842 49.1703 22.0311 48.681 21.7274L48.217 22.512H47.365L47.2131 17.307H48.082C48.2592 17.9481 48.4701 18.5302 48.7063 19.0448C48.9425 19.5594 49.2631 20.0487 49.6511 20.4958C50.0223 20.9176 50.4525 21.255 50.9503 21.4997C51.448 21.7528 52.0216 21.8709 52.6797 21.8709C53.1689 21.8709 53.5992 21.8034 53.9704 21.6768C54.3416 21.5503 54.6368 21.3647 54.8646 21.1285C55.0924 20.8923 55.2611 20.6139 55.3707 20.2933C55.4804 19.9727 55.5395 19.61 55.5395 19.1966C55.5395 18.5892 55.3707 18.024 55.0249 17.4926C54.679 16.9695 54.1728 16.5646 53.4895 16.2947C53.0255 16.1091 52.4941 15.9066 51.8951 15.6788C51.2961 15.451 50.7731 15.2401 50.3429 15.0461C49.4824 14.6581 48.816 14.1519 48.3435 13.5276C47.8711 12.9034 47.6349 12.0851 47.6349 11.0812C47.6349 10.4991 47.753 9.96763 47.9892 9.46147C48.2254 8.95531 48.5629 8.51664 48.9931 8.12015C49.4065 7.74896 49.8958 7.4537 50.461 7.25124C51.0262 7.04034 51.6167 6.93066 52.2325 6.93066C52.9327 6.93066 53.557 7.04034 54.1138 7.25124C54.6706 7.46214 55.1767 7.71522 55.6323 8.00204L56.0709 7.27654H56.9314L57.0158 12.3213H56.1553C55.995 11.7392 55.8179 11.1909 55.6238 10.6594C55.4298 10.1279 55.1683 9.6555 54.8562 9.22526C54.5525 8.8119 54.1728 8.48289 53.7342 8.22981C53.2871 7.98516 52.7471 7.85863 52.106 7.85863C51.4311 7.85863 50.849 8.07796 50.3682 8.5082C49.8873 8.94687 49.6511 9.47834 49.6511 10.1026C49.6511 10.7606 49.803 11.3005 50.1151 11.7392C50.4188 12.1694 50.8659 12.5237 51.4564 12.8021C51.9795 13.0552 52.4941 13.2661 52.9918 13.4517C53.498 13.6373 53.9872 13.8313 54.4512 14.0338C54.8815 14.2194 55.2948 14.4303 55.6913 14.6665C56.0794 14.9364 56.4253 15.2148 56.7205 15.527Z" fill="#661408"/>
<path d="M70.9605 22.504H65.7977V21.7954C65.958 21.7785 66.1435 21.7701 66.3376 21.7532C66.5316 21.7363 66.7003 21.711 66.8269 21.6688C67.0293 21.6013 67.1727 21.4917 67.274 21.3314C67.3668 21.1711 67.4174 20.9602 67.4174 20.7071V15.2743C67.4174 14.5235 67.2402 13.9414 66.8859 13.5365C66.5316 13.1316 66.1014 12.9291 65.5952 12.9291C65.2156 12.9291 64.8697 12.9882 64.5491 13.1063C64.237 13.2244 63.9586 13.3678 63.714 13.5365C63.4778 13.7052 63.2922 13.8739 63.1488 14.068C63.0053 14.262 62.9041 14.4138 62.8451 14.5235V20.5974C62.8451 20.8421 62.8957 21.0446 62.9969 21.1964C63.0981 21.3567 63.25 21.4748 63.444 21.5592C63.5959 21.6266 63.7561 21.6857 63.9333 21.7194C64.1105 21.7532 64.2876 21.7785 64.4732 21.7954V22.504H59.2935V21.7954C59.4538 21.7785 59.6309 21.7701 59.7997 21.7532C59.9768 21.7363 60.1287 21.711 60.2552 21.6688C60.4577 21.6013 60.6011 21.4917 60.7023 21.3314C60.7951 21.1711 60.8457 20.9602 60.8457 20.7071V14.1861C60.8457 13.9414 60.7951 13.7221 60.6939 13.5196C60.5926 13.3172 60.4492 13.1484 60.2636 13.0219C60.1287 12.9375 59.9684 12.8701 59.7828 12.8363C59.5972 12.7941 59.3947 12.7688 59.1838 12.7519V12.0433L62.7016 11.8071L62.8535 11.959V13.4521H62.9041C63.0728 13.2834 63.2922 13.0725 63.5452 12.8363C63.7983 12.6001 64.043 12.3976 64.2707 12.2542C64.5323 12.0855 64.8528 11.9421 65.2156 11.824C65.5783 11.7059 65.9917 11.6553 66.4472 11.6553C67.4596 11.6553 68.2104 11.9674 68.6997 12.6001C69.1889 13.2328 69.4336 14.0764 69.4336 15.1225V20.6228C69.4336 20.8758 69.4758 21.0783 69.5601 21.2302C69.6445 21.382 69.7963 21.5001 69.9988 21.5929C70.1675 21.6604 70.3194 21.711 70.4459 21.7447C70.5725 21.7701 70.7412 21.7954 70.9689 21.8122V22.504H70.9605Z" fill="#661408"/>
<path d="M81.649 20.0238C81.2019 20.8674 80.6113 21.5423 79.869 22.04C79.1266 22.5377 78.2746 22.7908 77.3044 22.7908C76.4524 22.7908 75.71 22.639 75.0689 22.3437C74.4277 22.04 73.9047 21.6351 73.4913 21.1205C73.078 20.6059 72.7658 20.0069 72.5634 19.3236C72.3609 18.6403 72.2597 17.9148 72.2597 17.1471C72.2597 16.4638 72.3693 15.7889 72.5887 15.1309C72.808 14.4729 73.1286 13.8739 73.5504 13.3509C73.9553 12.8447 74.4615 12.4314 75.0689 12.1192C75.6763 11.8071 76.3512 11.6553 77.102 11.6553C77.8696 11.6553 78.5361 11.7734 79.0844 12.018C79.6328 12.2627 80.0799 12.5917 80.4257 13.0135C80.7548 13.41 80.9994 13.8824 81.1597 14.4307C81.32 14.9706 81.4043 15.5612 81.4043 16.2023V16.9109H74.4024C74.4024 17.6027 74.4699 18.2354 74.6049 18.8006C74.7399 19.3658 74.9423 19.8635 75.2292 20.2938C75.5075 20.7071 75.8703 21.0361 76.3258 21.2808C76.7729 21.517 77.3129 21.6435 77.9371 21.6435C78.5698 21.6435 79.1182 21.4917 79.5821 21.1964C80.0461 20.9012 80.4848 20.3612 80.915 19.5851L81.649 20.0238ZM79.2784 15.9914C79.2784 15.5949 79.2447 15.1647 79.1772 14.7091C79.1097 14.2536 79.0001 13.8739 78.8482 13.5618C78.6879 13.2328 78.4602 12.9713 78.1733 12.7604C77.8865 12.5495 77.5238 12.4482 77.0682 12.4482C76.3174 12.4482 75.6931 12.7604 75.1954 13.3846C74.6977 14.0089 74.4277 14.8778 74.3856 15.9829H79.2784V15.9914Z" fill="#661408"/>
<path d="M89.8488 17.333C90.1441 17.5861 90.3634 17.8898 90.5237 18.2188C90.684 18.5562 90.7599 18.9696 90.7599 19.4504C90.7599 20.429 90.3971 21.2304 89.6632 21.8547C88.9293 22.479 87.9844 22.7826 86.8203 22.7826C86.2044 22.7826 85.6392 22.673 85.1246 22.4536C84.61 22.2343 84.2388 22.0318 84.0111 21.8462L83.8002 22.5464H82.9987L82.8891 18.8683H83.6314C83.6905 19.1467 83.8086 19.4757 83.9942 19.8469C84.1798 20.2181 84.4076 20.5555 84.6691 20.8592C84.9475 21.1714 85.2849 21.4413 85.673 21.6522C86.061 21.8631 86.4997 21.9728 86.989 21.9728C87.6723 21.9728 88.2038 21.8125 88.575 21.5004C88.9461 21.1882 89.1317 20.7411 89.1317 20.159C89.1317 19.8553 89.0727 19.6023 88.9546 19.3829C88.8365 19.1636 88.6593 18.978 88.4315 18.8093C88.1953 18.6406 87.9085 18.4972 87.5626 18.3622C87.2168 18.2272 86.8371 18.1007 86.4153 17.9741C86.0779 17.8729 85.7067 17.7379 85.2933 17.5608C84.88 17.3836 84.5341 17.1811 84.2388 16.9449C83.9267 16.6918 83.6652 16.3881 83.4712 16.0254C83.2771 15.6627 83.1675 15.2324 83.1675 14.7431C83.1675 13.8826 83.488 13.1487 84.1292 12.5498C84.7703 11.9508 85.6308 11.6471 86.7106 11.6471C87.124 11.6471 87.5458 11.6977 87.9844 11.8074C88.4147 11.9171 88.769 12.0436 89.0389 12.1955L89.2836 11.6387H90.0513L90.2115 15.0384H89.4692C89.3173 14.2791 88.9968 13.6549 88.499 13.1825C88.0013 12.71 87.3939 12.4654 86.6853 12.4654C86.1032 12.4654 85.6392 12.6088 85.3018 12.9041C84.9643 13.1993 84.7956 13.5537 84.7956 13.9755C84.7956 14.296 84.8547 14.566 84.9643 14.7769C85.074 14.9878 85.2427 15.1734 85.4621 15.3252C85.673 15.4686 85.9429 15.6036 86.2719 15.7301C86.6009 15.8567 86.9974 16.0001 87.4783 16.1519C87.9507 16.3038 88.3978 16.4809 88.8112 16.675C89.233 16.869 89.5788 17.0883 89.8488 17.333Z" fill="#661408"/>
<path d="M110.433 22.5043H105.287V21.7956C105.447 21.7788 105.616 21.7703 105.784 21.7535C105.953 21.7366 106.097 21.7113 106.231 21.6691C106.434 21.6016 106.577 21.4919 106.679 21.3317C106.771 21.1714 106.822 20.9605 106.822 20.7074V15.2493C106.822 14.5069 106.653 13.9333 106.316 13.5283C105.978 13.1234 105.557 12.921 105.042 12.921C104.696 12.921 104.367 12.9716 104.055 13.0812C103.751 13.1909 103.464 13.3343 103.211 13.5283C103 13.6886 102.832 13.8573 102.688 14.0345C102.553 14.2201 102.444 14.3719 102.376 14.49V20.5893C102.376 20.8424 102.418 21.0448 102.503 21.2051C102.587 21.3654 102.739 21.4919 102.941 21.5763C103.11 21.6438 103.254 21.686 103.389 21.7197C103.524 21.7535 103.692 21.7788 103.912 21.7872V22.4958H98.8753V21.7872C99.0356 21.7703 99.1958 21.7619 99.3561 21.745C99.508 21.7282 99.6514 21.7028 99.7779 21.6607C99.9804 21.5932 100.124 21.4835 100.225 21.3232C100.318 21.1629 100.368 20.952 100.368 20.699V15.2409C100.368 14.4985 100.2 13.9248 99.8539 13.5199C99.5164 13.115 99.0862 12.9125 98.58 12.9125C98.2257 12.9125 97.8967 12.9716 97.593 13.0812C97.2893 13.1909 97.0025 13.3427 96.741 13.5368C96.5301 13.6971 96.3613 13.8742 96.2179 14.0682C96.0745 14.2623 95.9648 14.4141 95.8974 14.5154V20.5724C95.8974 20.8171 95.948 21.0195 96.0492 21.1798C96.1504 21.3485 96.3023 21.4666 96.4963 21.551C96.6482 21.6185 96.8 21.6775 96.9603 21.7113C97.1206 21.745 97.2893 21.7703 97.4833 21.7872V22.4958H92.3458V21.7872C92.5061 21.7703 92.6832 21.7619 92.852 21.745C93.0291 21.7282 93.181 21.7028 93.3075 21.6607C93.51 21.5932 93.6534 21.4835 93.7546 21.3232C93.8474 21.1629 93.898 20.952 93.898 20.699V14.1357C93.898 13.908 93.8474 13.7055 93.7462 13.5199C93.6449 13.3343 93.5015 13.1825 93.3159 13.0559C93.181 12.9716 93.0122 12.9041 92.8098 12.845C92.6073 12.7944 92.4048 12.7607 92.1855 12.7438V12.0352L95.7202 11.799L95.872 11.9508V13.4609H95.948C96.1251 13.2837 96.3445 13.0728 96.606 12.8282C96.8591 12.5835 97.1037 12.3895 97.323 12.2376C97.5761 12.0689 97.8883 11.9255 98.2594 11.8074C98.6306 11.6893 99.0356 11.6387 99.4742 11.6387C100.158 11.6387 100.748 11.8243 101.246 12.187C101.735 12.5582 102.089 12.9969 102.309 13.5199C102.562 13.2668 102.79 13.0475 102.992 12.8619C103.186 12.6763 103.448 12.4738 103.768 12.2545C104.038 12.0689 104.359 11.9171 104.721 11.8074C105.093 11.6893 105.498 11.6387 105.945 11.6387C106.839 11.6387 107.539 11.9339 108.062 12.516C108.585 13.1065 108.847 14.0007 108.847 15.2155V20.5808C108.847 20.8339 108.889 21.0364 108.973 21.1967C109.058 21.357 109.209 21.4835 109.412 21.5679C109.572 21.6354 109.741 21.6775 109.901 21.7113C110.061 21.745 110.247 21.7703 110.441 21.7788V22.5043H110.433Z" fill="#661408"/>
<path d="M116.81 22.5038H111.706V21.7952C111.875 21.7784 112.044 21.7699 112.213 21.753C112.39 21.7362 112.542 21.7109 112.668 21.6687C112.871 21.6012 113.014 21.4915 113.115 21.3312C113.208 21.171 113.259 20.9601 113.259 20.707V14.1859C113.259 13.9582 113.208 13.7473 113.107 13.5617C113.006 13.3761 112.862 13.2158 112.677 13.0893C112.542 13.0049 112.348 12.929 112.086 12.8699C111.833 12.8109 111.597 12.7687 111.377 12.7603V12.0516L115.106 11.8154L115.258 11.9673V20.5889C115.258 20.842 115.309 21.0444 115.401 21.2131C115.494 21.3819 115.646 21.5 115.857 21.5759C116.009 21.6434 116.169 21.694 116.313 21.7277C116.456 21.7615 116.625 21.7952 116.81 21.8121V22.5038ZM115.477 7.63958C115.477 8.04451 115.342 8.39883 115.072 8.70253C114.802 9.00622 114.473 9.15807 114.085 9.15807C113.723 9.15807 113.402 9.01466 113.141 8.72783C112.871 8.44101 112.736 8.10356 112.736 7.74081C112.736 7.34432 112.871 7.00689 113.141 6.71163C113.411 6.41637 113.723 6.27295 114.085 6.27295C114.49 6.27295 114.828 6.40792 115.089 6.68631C115.351 6.96469 115.477 7.27683 115.477 7.63958Z" fill="#661408"/>
<path d="M136.061 11.4266H135.319C135.251 11.1735 135.142 10.8614 134.973 10.5071C134.804 10.1528 134.619 9.82378 134.408 9.50322C134.197 9.17421 133.961 8.88738 133.708 8.64274C133.455 8.39809 133.21 8.25468 132.974 8.22094C132.754 8.19563 132.476 8.17032 132.139 8.15345C131.801 8.13657 131.489 8.12814 131.202 8.12814H130.578V20.2929C130.578 20.5291 130.629 20.7484 130.73 20.9425C130.831 21.1365 131.008 21.2883 131.253 21.398C131.379 21.4486 131.649 21.5161 132.063 21.6005C132.476 21.6848 132.797 21.7354 133.024 21.7439V22.5031H125.837V21.7439C126.039 21.727 126.343 21.7017 126.756 21.6595C127.17 21.6173 127.448 21.5667 127.608 21.4992C127.845 21.4064 128.013 21.2715 128.131 21.0943C128.241 20.9171 128.3 20.6894 128.3 20.3941V8.13657H127.676C127.457 8.13657 127.178 8.14501 126.849 8.15345C126.52 8.16188 126.208 8.18719 125.904 8.22094C125.668 8.24624 125.424 8.38966 125.17 8.64274C124.917 8.89582 124.681 9.18265 124.47 9.50322C124.259 9.82378 124.065 10.1697 123.905 10.524C123.745 10.8867 123.627 11.182 123.559 11.4182H122.808V7.29297H136.07V11.4266H136.061Z" fill="#661408"/>
<path d="M146.387 20.0238C145.94 20.8674 145.349 21.5423 144.607 22.04C143.865 22.5377 143.013 22.7908 142.042 22.7908C141.19 22.7908 140.448 22.639 139.807 22.3437C139.166 22.04 138.643 21.6351 138.229 21.1205C137.816 20.6059 137.504 20.0069 137.301 19.3236C137.099 18.6403 136.998 17.9148 136.998 17.1471C136.998 16.4638 137.107 15.7889 137.327 15.1309C137.546 14.4729 137.867 13.8739 138.288 13.3509C138.693 12.8447 139.199 12.4314 139.807 12.1192C140.414 11.8071 141.089 11.6553 141.84 11.6553C142.608 11.6553 143.274 11.7734 143.822 12.018C144.371 12.2627 144.818 12.5917 145.164 13.0135C145.493 13.41 145.737 13.8824 145.898 14.4307C146.058 14.9706 146.142 15.5612 146.142 16.2023V16.9109H139.14C139.14 17.6027 139.208 18.2354 139.334 18.8006C139.461 19.3658 139.68 19.8635 139.959 20.2938C140.237 20.7071 140.6 21.0361 141.055 21.2808C141.503 21.517 142.042 21.6435 142.667 21.6435C143.299 21.6435 143.848 21.4917 144.312 21.1964C144.776 20.9012 145.214 20.3612 145.645 19.5851L146.387 20.0238ZM144.016 15.9914C144.016 15.5949 143.983 15.1647 143.915 14.7091C143.848 14.2536 143.738 13.8739 143.586 13.5618C143.426 13.2328 143.198 12.9713 142.911 12.7604C142.625 12.5495 142.262 12.4482 141.806 12.4482C141.055 12.4482 140.431 12.7604 139.933 13.3846C139.436 14.0089 139.166 14.8778 139.124 15.9829H144.016V15.9914Z" fill="#661408"/>
<path d="M152.495 22.7826C150.968 22.7826 149.77 22.2765 148.901 21.2642C148.04 20.2519 147.602 18.8852 147.602 17.1811C147.602 16.4388 147.72 15.747 147.948 15.0974C148.175 14.4479 148.521 13.8658 148.96 13.3343C149.382 12.8281 149.913 12.4148 150.546 12.1027C151.179 11.7905 151.87 11.6387 152.621 11.6387C153.659 11.6387 154.502 11.8833 155.152 12.381C155.802 12.8788 156.131 13.5536 156.131 14.4141C156.131 14.7684 156.046 15.089 155.878 15.359C155.709 15.6289 155.422 15.7723 155.034 15.7723C154.612 15.7723 154.283 15.6627 154.055 15.4518C153.819 15.2409 153.709 14.9962 153.709 14.7347C153.709 14.4141 153.752 14.0851 153.836 13.7477C153.92 13.4102 153.971 13.1656 153.988 13.0053C153.861 12.786 153.667 12.6341 153.414 12.5582C153.161 12.4823 152.891 12.4485 152.596 12.4485C152.25 12.4485 151.929 12.5245 151.617 12.6679C151.305 12.8113 151.01 13.0812 150.715 13.4777C150.453 13.832 150.234 14.3213 150.074 14.9287C149.913 15.5361 149.829 16.2616 149.829 17.1052C149.829 18.4381 150.124 19.5179 150.715 20.3615C151.305 21.2051 152.073 21.6185 153.035 21.6185C153.726 21.6185 154.308 21.4498 154.772 21.1123C155.236 20.7749 155.675 20.2687 156.072 19.5938L156.755 20.0409C156.282 20.8845 155.658 21.551 154.891 22.0487C154.114 22.538 153.313 22.7826 152.495 22.7826Z" fill="#661408"/>
<path d="M169.071 22.5039H163.875V21.7953C164.035 21.7784 164.221 21.77 164.423 21.7531C164.626 21.7363 164.786 21.711 164.912 21.6688C165.115 21.6013 165.258 21.4916 165.36 21.3313C165.452 21.171 165.503 20.9602 165.503 20.7071V15.2743C165.503 14.5235 165.326 13.9414 164.972 13.5365C164.617 13.1315 164.187 12.9291 163.681 12.9291C163.31 12.9291 162.964 12.9881 162.643 13.1062C162.323 13.2243 162.044 13.3677 161.791 13.5365C161.547 13.7136 161.361 13.8908 161.234 14.0764C161.108 14.2535 161.007 14.4054 160.931 14.5235V20.5974C160.931 20.842 160.981 21.0445 161.074 21.1964C161.167 21.3567 161.319 21.4747 161.521 21.5591C161.681 21.6266 161.842 21.6857 162.01 21.7194C162.179 21.7531 162.365 21.7784 162.559 21.7953V22.5039H157.379V21.7953C157.539 21.7784 157.717 21.7616 157.894 21.7447C158.071 21.7278 158.223 21.7025 158.341 21.6603C158.543 21.5928 158.687 21.4832 158.788 21.3229C158.889 21.1626 158.94 20.9517 158.94 20.6986V8.38205C158.94 8.1374 158.881 7.89276 158.771 7.65655C158.661 7.4119 158.518 7.23474 158.341 7.1082C158.214 7.0154 157.987 6.94792 157.657 6.90574C157.328 6.86356 157.067 6.83825 156.873 6.82138V6.13806L160.787 5.90186L160.939 6.06214V13.4352H160.981C161.218 13.199 161.428 12.9881 161.622 12.811C161.816 12.6254 162.07 12.4398 162.382 12.2373C162.652 12.0686 162.972 11.9252 163.343 11.8071C163.715 11.689 164.128 11.6384 164.583 11.6384C165.528 11.6384 166.254 11.9336 166.76 12.5326C167.266 13.1315 167.519 13.992 167.519 15.114V20.6143C167.519 20.8674 167.561 21.0698 167.654 21.2217C167.747 21.3735 167.89 21.4916 168.101 21.5844C168.27 21.6519 168.413 21.6941 168.548 21.7278C168.683 21.7616 168.852 21.7869 169.071 21.7953V22.5039Z" fill="#661408"/>
<path d="M182.021 22.504H176.858V21.7954C177.027 21.7785 177.204 21.7701 177.398 21.7532C177.592 21.7363 177.76 21.711 177.887 21.6688C178.089 21.6013 178.233 21.4917 178.334 21.3314C178.427 21.1711 178.478 20.9602 178.478 20.7071V15.2743C178.478 14.5235 178.3 13.9414 177.946 13.5365C177.592 13.1316 177.162 12.9291 176.655 12.9291C176.276 12.9291 175.93 12.9882 175.609 13.1063C175.289 13.2244 175.019 13.3678 174.774 13.5365C174.538 13.7052 174.352 13.8739 174.209 14.068C174.066 14.262 173.964 14.4138 173.905 14.5235V20.5974C173.905 20.8421 173.956 21.0446 174.057 21.1964C174.158 21.3567 174.31 21.4748 174.504 21.5592C174.656 21.6266 174.816 21.6857 174.993 21.7194C175.171 21.7532 175.348 21.7785 175.533 21.7954V22.504H170.354V21.7954C170.514 21.7785 170.691 21.7701 170.86 21.7532C171.037 21.7363 171.189 21.711 171.315 21.6688C171.518 21.6013 171.661 21.4917 171.762 21.3314C171.855 21.1711 171.906 20.9602 171.906 20.7071V14.1861C171.906 13.9414 171.855 13.7221 171.754 13.5196C171.653 13.3172 171.509 13.1484 171.324 13.0219C171.189 12.9375 171.029 12.8701 170.843 12.8363C170.657 12.7941 170.455 12.7688 170.244 12.7519V12.0433L173.762 11.8071L173.914 11.959V13.4521H173.964C174.133 13.2834 174.352 13.0725 174.605 12.8363C174.858 12.6001 175.103 12.3976 175.331 12.2542C175.592 12.0855 175.913 11.9421 176.276 11.824C176.639 11.7059 177.052 11.6553 177.507 11.6553C178.52 11.6553 179.271 11.9674 179.76 12.6001C180.249 13.2328 180.494 14.0764 180.494 15.1225V20.6228C180.494 20.8758 180.536 21.0783 180.62 21.2302C180.705 21.382 180.857 21.5001 181.059 21.5929C181.228 21.6604 181.38 21.711 181.506 21.7447C181.633 21.7701 181.801 21.7954 182.029 21.8122V22.504H182.021Z" fill="#661408"/>
<path d="M193.629 17.113C193.629 17.8554 193.511 18.5893 193.274 19.3064C193.038 20.0235 192.701 20.6308 192.262 21.137C191.773 21.7107 191.199 22.1325 190.55 22.4109C189.9 22.6892 189.166 22.8327 188.365 22.8327C187.69 22.8327 187.049 22.7061 186.441 22.453C185.834 22.1999 185.294 21.8288 184.822 21.3479C184.358 20.8671 183.986 20.285 183.708 19.5932C183.43 18.9015 183.295 18.1338 183.295 17.2733C183.295 15.6198 183.775 14.2701 184.737 13.224C185.699 12.1695 186.956 11.6465 188.516 11.6465C189.993 11.6465 191.216 12.1442 192.178 13.1397C193.148 14.1267 193.629 15.4596 193.629 17.113ZM191.41 17.1383C191.41 16.6069 191.359 16.0332 191.25 15.4427C191.14 14.8437 190.98 14.3376 190.769 13.9242C190.541 13.4771 190.237 13.1228 189.866 12.8613C189.495 12.5913 189.04 12.4563 188.5 12.4563C187.951 12.4563 187.479 12.5913 187.091 12.8613C186.703 13.1312 186.382 13.5024 186.138 13.9748C185.91 14.4135 185.749 14.9112 185.657 15.468C185.564 16.0248 185.522 16.5647 185.522 17.0877C185.522 17.771 185.581 18.4037 185.69 18.9943C185.8 19.5763 185.977 20.0994 186.222 20.5549C186.467 21.0105 186.77 21.3732 187.141 21.6347C187.513 21.8962 187.968 22.0228 188.508 22.0228C189.402 22.0228 190.111 21.5926 190.634 20.7237C191.149 19.8547 191.41 18.6568 191.41 17.1383Z" fill="#661408"/>
<path d="M212.357 11.0478C212.357 11.8408 212.205 12.541 211.893 13.1568C211.581 13.7642 211.15 14.2704 210.602 14.6753C210.062 15.0718 209.463 15.3671 208.814 15.5527C208.164 15.7383 207.472 15.8311 206.747 15.8311H205.043V20.4371C205.043 20.6902 205.085 20.9095 205.169 21.0951C205.254 21.2892 205.422 21.4326 205.675 21.5254C205.802 21.576 206.03 21.6182 206.359 21.6688C206.688 21.711 206.983 21.7363 207.253 21.7447V22.5039H200.723V21.7447C200.892 21.7278 201.145 21.7025 201.466 21.6688C201.795 21.635 202.014 21.5844 202.149 21.5254C202.36 21.4326 202.52 21.2976 202.613 21.1204C202.706 20.9433 202.756 20.7155 202.756 20.4371V9.46187C202.756 9.20878 202.723 8.98945 202.647 8.78698C202.571 8.58452 202.411 8.43267 202.141 8.33987C201.871 8.24708 201.601 8.17959 201.331 8.14585C201.061 8.10367 200.833 8.07835 200.639 8.06148V7.30225H207.582C208.999 7.30225 210.146 7.63968 211.024 8.323C211.918 9.00632 212.357 9.91741 212.357 11.0478ZM209.1 13.6461C209.345 13.3002 209.505 12.9459 209.581 12.5832C209.657 12.212 209.699 11.883 209.699 11.5877C209.699 11.1828 209.649 10.7695 209.556 10.3477C209.463 9.92585 209.294 9.55467 209.058 9.24253C208.805 8.90509 208.476 8.64357 208.071 8.45798C207.666 8.27238 207.16 8.17959 206.553 8.17959H205.043V14.9031H206.139C206.907 14.9031 207.54 14.785 208.021 14.5404C208.493 14.2957 208.856 14.0004 209.1 13.6461Z" fill="#661408"/>
<path d="M224.269 12.5916C223.948 12.6507 223.644 12.7688 223.349 12.9375C223.062 13.1146 222.809 13.4183 222.607 13.8654C222.185 14.8272 221.746 15.8226 221.299 16.8602C220.852 17.8979 220.38 18.9945 219.899 20.1334C219.755 20.4624 219.604 20.8505 219.443 21.2976C219.283 21.7447 219.131 22.1834 218.996 22.5967H218.161C217.486 20.918 216.853 19.3826 216.288 18.0075C215.715 16.624 215.124 15.2068 214.508 13.7558C214.365 13.4268 214.137 13.1737 213.816 12.9881C213.496 12.8025 213.175 12.6928 212.855 12.6422V11.9336H217.748V12.6844C217.537 12.6928 217.267 12.735 216.946 12.8194C216.626 12.9037 216.465 13.0134 216.465 13.1568C216.465 13.1821 216.482 13.2327 216.516 13.3255C216.55 13.4183 216.583 13.5196 216.626 13.6292C216.921 14.3547 217.334 15.3755 217.866 16.6831C218.397 17.9907 218.836 19.0452 219.173 19.8382C219.426 19.2223 219.755 18.4631 220.143 17.5436C220.531 16.6325 220.953 15.6117 221.4 14.4813C221.468 14.2872 221.544 14.1101 221.603 13.9414C221.67 13.7727 221.696 13.6039 221.696 13.4352C221.696 13.3171 221.637 13.2074 221.519 13.1062C221.4 13.0134 221.257 12.9291 221.097 12.8531C220.936 12.7856 220.776 12.7266 220.616 12.6928C220.456 12.6591 220.329 12.6338 220.228 12.6169V11.9336H224.269V12.5916Z" fill="#661408"/>
<path d="M231.253 22.0479C230.789 22.242 230.351 22.4022 229.937 22.5372C229.524 22.6722 229.018 22.7397 228.419 22.7397C227.533 22.7397 226.909 22.5119 226.546 22.0732C226.183 21.6261 226.006 20.9934 226.006 20.1836V13.0214H224.1V11.9922H226.048V8.70215H227.997V11.9922H231.034V13.0214H228.022V18.9266C228.022 19.3737 228.039 19.7365 228.073 20.0402C228.107 20.3354 228.183 20.5969 228.301 20.8163C228.419 21.0272 228.588 21.179 228.815 21.2887C229.043 21.3984 229.355 21.449 229.735 21.449C229.912 21.449 230.174 21.4321 230.519 21.3984C230.865 21.3646 231.11 21.3224 231.253 21.2718V22.0479Z" fill="#661408"/>
<path d="M250.083 17.9827L249.762 22.5044H237.876V21.7452C238.045 21.7283 238.298 21.703 238.618 21.6693C238.947 21.6355 239.167 21.5849 239.302 21.5259C239.512 21.4331 239.673 21.2981 239.766 21.1209C239.858 20.9438 239.909 20.716 239.909 20.4376V9.54672C239.909 9.30207 239.867 9.09117 239.782 8.90557C239.698 8.71998 239.538 8.56813 239.293 8.45847C239.133 8.3741 238.897 8.28974 238.601 8.20538C238.306 8.12102 238.061 8.07884 237.867 8.06197V7.30273H244.287V8.06197C244.085 8.07041 243.832 8.10416 243.511 8.17164C243.191 8.23913 242.963 8.28975 242.819 8.34036C242.575 8.42472 242.414 8.57657 242.322 8.77904C242.229 8.98994 242.187 9.20927 242.187 9.44548V19.6615C242.187 20.1339 242.212 20.4967 242.254 20.7582C242.296 21.0197 242.406 21.2222 242.583 21.3656C242.743 21.4921 242.988 21.5765 243.317 21.6187C243.638 21.6608 244.093 21.6777 244.684 21.6777C244.945 21.6777 245.224 21.6693 245.51 21.6524C245.797 21.6355 246.067 21.6102 246.32 21.568C246.573 21.5259 246.801 21.4668 247.012 21.3909C247.223 21.315 247.375 21.2222 247.476 21.1041C247.771 20.7751 248.109 20.2773 248.497 19.6109C248.885 18.9444 249.155 18.4045 249.307 17.9827H250.083Z" fill="#661408"/>
<path d="M257.371 22.0479C256.907 22.242 256.469 22.4022 256.055 22.5372C255.642 22.6722 255.136 22.7397 254.537 22.7397C253.651 22.7397 253.027 22.5119 252.664 22.0732C252.301 21.6261 252.124 20.9934 252.124 20.1836V13.0214H250.217V11.9922H252.166V8.70215H254.115V11.9922H257.152V13.0214H254.14V18.9266C254.14 19.3737 254.157 19.7365 254.191 20.0402C254.225 20.3354 254.301 20.5969 254.419 20.8163C254.537 21.0272 254.705 21.179 254.933 21.2887C255.161 21.3984 255.465 21.449 255.853 21.449C256.03 21.449 256.291 21.4321 256.637 21.3984C256.983 21.3646 257.228 21.3224 257.371 21.2718V22.0479Z" fill="#661408"/>
<path d="M270 22.3099L266.305 22.5461L266.145 22.3943V21.4073L266.06 21.382C265.689 21.7953 265.234 22.1328 264.685 22.4027C264.137 22.6642 263.58 22.7992 262.998 22.7992C262.399 22.7992 261.817 22.6642 261.26 22.3943C260.704 22.1243 260.214 21.7531 259.801 21.2639C259.379 20.7746 259.05 20.1756 258.797 19.4839C258.552 18.7921 258.426 18.0244 258.426 17.1893C258.426 16.4216 258.561 15.6961 258.822 15.0128C259.084 14.3294 259.447 13.7305 259.911 13.2159C260.349 12.735 260.881 12.3554 261.513 12.0686C262.146 11.7818 262.787 11.6384 263.445 11.6384C263.935 11.6384 264.424 11.6974 264.896 11.8239C265.369 11.9505 265.782 12.1108 266.119 12.3048V8.61826C266.119 8.31456 266.069 8.04461 265.968 7.79996C265.866 7.55532 265.731 7.36129 265.546 7.23475C265.343 7.09977 265.073 6.99853 264.736 6.93948C264.399 6.88043 264.027 6.82982 263.639 6.80452V6.13806L267.967 5.90186L268.127 6.06214V20.3106C268.127 20.5637 268.178 20.7746 268.271 20.9517C268.363 21.1289 268.507 21.2723 268.692 21.3988C268.827 21.4832 269.021 21.5422 269.283 21.5591C269.536 21.5844 269.772 21.5929 269.992 21.6013V22.3099H270ZM266.119 20.4624V14.2788C266.06 14.0932 265.968 13.8908 265.841 13.6799C265.715 13.469 265.554 13.2665 265.36 13.0893C265.149 12.9122 264.913 12.7603 264.635 12.6422C264.356 12.5241 264.036 12.4651 263.665 12.4651C263.234 12.4651 262.846 12.5747 262.484 12.7941C262.121 13.0134 261.8 13.334 261.53 13.7474C261.269 14.1439 261.058 14.6584 260.906 15.2743C260.754 15.8901 260.678 16.5734 260.678 17.3242C260.678 17.9232 260.737 18.4715 260.847 18.9608C260.957 19.4501 261.151 19.9057 261.421 20.3275C261.674 20.724 261.986 21.053 262.382 21.2892C262.77 21.5338 263.234 21.6519 263.766 21.6519C264.339 21.6519 264.812 21.5254 265.183 21.2807C265.546 21.0361 265.866 20.7577 266.119 20.4624Z" fill="#661408"/>
<path d="M13.4336 26.0446L12.9996 26.0366C12.9996 26.0366 12.8963 25.1341 13.071 24.1628C12.5232 24.0649 11.9462 23.9828 11.3427 23.9166C6.73486 23.4508 4.40313 21.5399 4.34491 18.1866C4.28668 14.4256 6.3855 12.5147 10.644 12.4565C12.8011 12.4274 14.4261 12.8932 15.5218 13.8566C16.6176 14.82 17.2634 16.3789 17.4672 18.5359H18.7799V10.7097H17.5545C17.438 11.1464 17.2104 11.3661 16.8769 11.3661C16.5408 11.3661 15.7892 11.2417 14.6246 10.9955C13.4574 10.7494 12.4517 10.625 11.6074 10.625C8.71987 10.625 6.27169 11.3237 4.26021 12.7238C1.89937 14.3251 0.716305 16.6727 0.716305 19.764C0.716305 24.1972 3.82086 26.7909 10.0326 27.5479C12.3644 27.8099 14.1932 28.5113 15.5218 29.6467C16.8478 30.7848 17.5122 32.3013 17.5122 34.1964C17.4539 36.004 16.6811 37.4465 15.1937 38.5263C13.6771 39.5771 11.9144 40.117 9.90294 40.1434C9.02953 40.1726 8.05026 40.027 6.97306 39.7067C5.89322 39.3865 5.07804 38.9921 4.52488 38.5263C3.32858 37.5047 2.64309 35.8452 2.46841 33.54H1.15566L1.11066 40.4928C3.73352 41.4853 6.11024 41.9802 8.24082 41.9802C11.7689 41.9802 14.6987 41.2074 17.0305 39.6618C19.7433 37.8832 21.0984 35.3027 21.0984 31.9202C21.0984 28.1566 18.9546 25.6899 14.667 24.5201C14.1879 24.9383 13.7459 25.4491 13.4336 26.0446Z" fill="url(#paint0_radial_744_461)"/>
<path d="M15.3525 21.6354C13.7989 21.6512 13.2299 22.8793 13.034 24.0121C13.5951 24.11 14.1271 24.2238 14.63 24.3588C15.5722 23.5251 16.6626 23.0593 17.1761 23.0566C17.9463 23.0513 21.0588 23.0302 21.0588 23.0302L21.2043 43.8754L24.2057 43.8543L24.0601 23.0884L31.8281 23.0354L31.8175 21.5215C31.8175 21.5189 18.2427 21.6036 15.3525 21.6354Z" fill="url(#paint1_radial_744_461)"/>
<path d="M38.2039 42.3613C35.4805 44.7618 30.8276 44.4257 25.5898 41.951C29.6445 43.4464 33.1884 43.3988 35.3984 41.4508C40.2339 37.1923 36.8726 25.4754 27.8924 15.2804C18.9122 5.0854 7.71413 0.271084 2.88129 4.52695C0.671306 6.47755 0.17373 9.98441 1.14242 14.1926C-0.649389 8.68754 -0.39266 4.03202 2.33342 1.63413C7.54209 -2.95257 19.7936 2.44666 29.6975 13.6951C39.604 24.9408 43.4126 37.7746 38.2039 42.3613Z" fill="url(#paint2_radial_744_461)"/>
<path d="M2.34402 14.0809C2.34402 14.0809 1.74057 11.945 1.5606 9.21631C1.38062 6.48758 3.16978 3.88325 7.60297 4.10557C12.0388 4.33054 17.1972 6.22821 20.8734 9.64508C20.8734 9.64508 15.8527 6.29702 9.54299 6.07735C3.23595 5.86032 2.18786 12.2415 2.34402 14.0809Z" fill="#BCB2B3"/>
<defs>
<radialGradient id="paint0_radial_744_461" cx="0" cy="0" r="1" gradientUnits="userSpaceOnUse" gradientTransform="translate(10.9077 26.3018) scale(13.2227 13.2227)">
<stop stop-color="#B48B00"/>
<stop offset="1" stop-color="#9E6F00"/>
</radialGradient>
<radialGradient id="paint1_radial_744_461" cx="0" cy="0" r="1" gradientUnits="userSpaceOnUse" gradientTransform="translate(22.4316 32.6973) scale(10.3257 10.3257)">
<stop stop-color="#B48B00"/>
<stop offset="1" stop-color="#9E6F00"/>
</radialGradient>
<radialGradient id="paint2_radial_744_461" cx="0" cy="0" r="1" gradientUnits="userSpaceOnUse" gradientTransform="translate(20.2687 21.9974) scale(21.1508 21.1507)">
<stop stop-color="#B48B00"/>
<stop offset="1" stop-color="#9C6B03"/>
</radialGradient>
</defs>
</svg>
